{"title":"Shab 2017 720p Esub DVD Hindi GOPISAHI","magnet":"magnet:?xt=urn:btih:12e5915e8ae2095cd5f93d0ff004bfa2c2ba8f2f&dn=Shab+2017+720p+Esub+DVD+Hindi+GOPISAHI&tr=udp%3A%2F%2Ftracker.leechers-paradise.org%3A6969&tr=udp%3A%2F%2Fzer0day.ch%3A1337&tr=udp%3A%2F%2Fopen.demonii.com%3A1337&tr=udp%3A%2F%2Ftracker.coppersurfer.tk%3A6969&tr=udp%3A%2F%2Fexodus.desync.com%3A6969","uploader":"jatt13","categoryP":"video","categoryS":"hd___movies","size":"636766455","seeders":"137","leechers":"154","description":"[center][img]https://lookimg.com/images/2017/12/15/kXp8t.jpg[/img]\r\nFormat                         : Matroska\r\nFormat version                 : Version 4 / Version 2\r\nFile size                      : 607 MiB\r\nDuration                       : 1 h 47 min\r\nOverall bit rate               : 788 kb/s\r\nMovie name                     : Shab 2017 \r\n\r\nVideo\r\nFormat                         : AVC\r\nCodec ID                       : V_MPEG4/ISO/AVC\r\nDuration                       : 1 h 47 min\r\nBit rate                       : 700 kb/s\r\nWidth                          : 1 280 pixels\r\nHeight                         : 544 pixels\r\nDisplay aspect ratio           : 2.35:1\r\nFrame rate mode                : Constant\r\nFrame rate                     : 23.976 (24000/1001) FPS\r\nColor space                    : YUV\r\nChroma subsampling             : 4:2:0\r\nBit depth                      : 8 bits\r\nScan type                      : Progressive\r\nBits/(Pixel*Frame)             : 0.042\r\nStream size                    : 539 MiB (89%)\r\nWriting library                : x264\r\n\r\nAudio\r\nFormat                         : AAC\r\nDuration                       : 1 h 47 min\r\nBit rate                       : 86.0 kb/s\r\nChannel(s)                     : 6 channels\r\nChannel positions              : Front: L C R, Side: L R, LFE\r\nSampling rate                  : 44.1 kHz\r\nFrame rate                     : 43.066 FPS (1024 SPF)\r\nCompression mode               : Lossy\r\nStream size                    : 66.3 MiB (11%)\r\nTitle                          : GOPISAHI\r\nLanguage                       : Hindi\r\n\r\nText\r\nLanguage                       : English\r\n[img]https://lookimg.com/images/2017/12/15/kXSKD.jpg[/img]\r\n[img]https://lookimg.com/images/2017/12/15/kX3X8.jpg[/img]\r\n[img]https://lookimg.com/images/2017/12/15/kX4FJ.jpg[/img][/center]","last_updated":"2017-12-16T12:06:23.561Z","parsed":{"xt":"urn:btih:12e5915e8ae2095cd5f93d0ff004bfa2c2ba8f2f","dn":"Shab 2017 720p Esub DVD Hindi GOPISAHI","tr":["udp://exodus.desync.com:6969","udp://open.demonii.com:1337","udp://tracker.coppersurfer.tk:6969","udp://tracker.leechers-paradise.org:6969","udp://zer0day.ch:1337"],"infoHash":"12e5915e8ae2095cd5f93d0ff004bfa2c2ba8f2f","infoHashBuffer":{"type":"Buffer","data":[18,229,145,94,138,226,9,92,213,249,61,15,240,4,191,162,194,186,143,47]},"name":"Shab 2017 720p Esub DVD Hindi GOPISAHI","announce":["udp://exodus.desync.com:6969","udp://open.demonii.com:1337","udp://tracker.coppersurfer.tk:6969","udp://tracker.leechers-paradise.org:6969","udp://zer0day.ch:1337"],"urlList":[]}}